<svg xmlns="http://www.w3.org/2000/svg" xmlns:xlink="http://www.w3.org/1999/xlink" version="1.1" id="Layer_1" x="0px" y="0px" width="33.333px" height="100px" viewBox="1.66665 -10.0 33.333 135.0" enable-background="new 0 0 33.333 100" xml:space="preserve">
<path fill="#000000" d="M16.667,4.085c-8.043,0-14.565,6.521-14.565,14.565c0,6.479,4.231,11.968,10.082,13.858l4.219,63.406h1.321  l3.47-63.42c5.827-1.904,10.039-7.381,10.039-13.845C31.232,10.606,24.711,4.085,16.667,4.085z M18.625,28.672  c2.504-2.328,3.92-6.429,3.42-10.905c-0.499-4.477-2.784-8.164-5.74-9.882c4.885-0.53,9.358,3.676,9.999,9.407  C26.943,23.022,23.506,28.111,18.625,28.672z"/>
<text x="0.0" y="117.5" font-size="5.0" font-weight="bold" font-family="Helvetica Neue, Helvetica, Arial-Unicode, Arial, Sans-serif" fill="#000000">Created by Nate Eul</text><text x="0.0" y="122.5" font-size="5.0" font-weight="bold" font-family="Helvetica Neue, Helvetica, Arial-Unicode, Arial, Sans-serif" fill="#000000">from the Noun Project</text></svg>